# xmcd
#
# Track frame offsets: 
#        150
#        126384
#        145103
#        164540
#        181364
#        197079
#        213836
#        233049
#        249661
#        266718
#        288332
#        305869
#        323706
#
# Disc length: 4505 seconds
#
# Revision: 0
# Processed by: cddbd v1.5.1PL2 Copyright (c) Steve Scherf et al.
# Submitted via: ExactAudioCopy v0.95a5
#
DISCID=c811970d
DTITLE=Osvaldir e Carlos Magrao - Da Cor do Brasil
DYEAR=2006
DGENRE=Gaucha
TTITLE0=Interativa
TTITLE1=Sobre o Lombo de Um Cavalo
TTITLE2=O Cincerro Vai Batendo
TTITLE3=Filho Sertanejo
TTITLE4=Carlota
TTITLE5=Orgulho de Gaucho
TTITLE6=Da Cor do Brasil
TTITLE7=Poupança da Gordinha
TTITLE8=Incendeia
TTITLE9=Quero Meu Pai
TTITLE10=Do Seu Lado
TTITLE11=Sonho Acordado
TTITLE12=Vaneirão Tesudo
EXTD=
EXTT0=
EXTT1=
EXTT2=
EXTT3=
EXTT4=
EXTT5=
EXTT6=
EXTT7=
EXTT8=
EXTT9=
EXTT10=
EXTT11=
EXTT12=
PLAYORDER=
